<svg xmlns="http://www.w3.org/2000/svg" xml:space="preserve" width="1024" height="218" style="shape-rendering:geometricPrecision;text-rendering:geometricPrecision;image-rendering:optimizeQuality;fill-rule:evenodd;clip-rule:evenodd" viewBox="0 0 1024 217.7"><path style="fill:#0072b0" d="M375.3 88.2h-47.1v40.4h-31V88.2H250v-28.1h47.2V19.3h31v40.8h47.1v28.1zm118.9 40.4h-31V19.3h31v109.3zm136.6-40.4h-47.1v40.4h-31V88.2h-47.2v-28.1h47.2V19.3h31v40.8h47.1v28.1zM0 19.3h31v83.4l41.6-44.5h37.2L68.2 101l44.3 80.6h-37.2l-30.9-56-14.4 15.4v40.6H0V19.3zm211.3 162.1c24.6 0 44-19.5 44-44s-19.4-44-44-44-44 19.5-44 44 19.4 44 44 44zm0-17.5c-14.7 0-26.5-11.7-26.5-26.5s11.8-26.5 26.5-26.5 26.5 11.8 26.5 26.5-11.8 26.5-26.5 26.5zM375.4 181.4h-31V151h-39.7v30.4h-31V97.2h31v26h39.7v-26h31v84.2zm118.9 0h-31V151h-39.7v30.4h-31V97.2h31v26h39.7v-26h31v84.2zm136.7 0h-31V97.2h31v84.2zm148.8 0c24.6 0 44-19.5 44-44s-19.4-44-44-44-44 19.5-44 44 19.4 44 44 44zm0-17.5c-14.7 0-26.5-11.7-26.5-26.5s11.8-26.5 26.5-26.5 26.5 11.8 26.5 26.5-11.8 26.5-26.5 26.5zm165.3 17.5h31V97.2h-31v29.4l-42.5-29.4h-37.2l41.6 42.8-44.3 62.1h37.2l30.9-43.6 14.2 13.9v29.7zM860.6 88.2h-28.1V19.3h-31v162.1h31V116.3h28.1c34.3 0 60.1-25.1 60.1-58.4 0-33.4-25.8-58.7-60.1-58.7zm0 80h-28.1V37.4h28.1c25.4 0 42 16.3 42 45.4s-16.6 45.4-42 45.4z"/></svg>