<svg xmlns="http://www.w3.org/2000/svg" xml:space="preserve" style="fill-rule:evenodd;clip-rule:evenodd;stroke-linejoin:round;stroke-miterlimit:2" viewBox="0 0 512 512"><path d="M0 0h512v512H0z" style="fill:none"/><path d="M437 256c0-100.02-81.18-181.2-181-181.2-100.02 0-181.2 81.18-181.2 181.2 0 100.02 81.18 181.2 181.2 181.2 100.02 0 181-81.18 181-181.2z" style="fill:#fff"/><path d="M255.8 84.8C155.78 84.8 74.6 165.98 74.6 266.2c0 100.02 81.18 181.2 181.2 181.2 100.02 0 181.2-81.18 181.2-181.2 0-100.22-81.18-181.4-181.2-181.4zm0 352.4c-94.49 0-171.2-76.71-171.2-171.2S161.31 95 255.8 95c94.49 0 171.2 76.71 171.2 171.2s-76.71 171.2-171.2 171.2z" style="fill:#004c94;fill-rule:nonzero"/><path d="M255.8 94.8c-30.13 0-58.45 7.82-82.68 21.6l172.58 172.57c13.78-24.23 21.6-52.55 21.6-82.67 0-59.5-48.3-107.8-107.8-107.8-1.5 0-2.79.21-4.29.21l-3.69-.11zM255.8 417.2c30.13 0 58.45-7.82 82.68-21.6L165.9 223.03c-13.78 24.23-21.6 52.55-21.6 82.67 0 59.5 48.3 107.8 107.8 107.8 1.5 0 2.79-.21 4.29-.21l3.69.11z" style="fill:#de1d2c;fill-rule:nonzero"/></svg>