<svg xmlns="http://www.w3.org/2000/svg" xml:space="preserve" style="fill-rule:evenodd;clip-rule:evenodd;stroke-linejoin:round;stroke-miterlimit:2" viewBox="0 0 512 512"><path d="M256 0c-141.38 0-256 114.62-256 256s114.62 256 256 256 256-114.62 256-256S397.38 0 256 0zm0 480C132.29 480 32 379.71 32 256S132.29 32 256 32s224 100.29 224 224-100.29 224-224 224z" style="fill:#de1d2c;fill-rule:nonzero"/><path d="m256 32-86 150h172L256 32z" style="fill:#de1d2c;fill-rule:nonzero"/><path d="m150 202 43 75-43 75h86l43-75-43-75h-86z" style="fill:#de1d2c;fill-rule:nonzero"/><path d="m276 202 43 75-43 75h86l43-75-43-75h-86z" style="fill:#de1d2c;fill-rule:nonzero"/></svg>